<svg id="svg" xmlns="http://www.w3.org/2000/svg" xmlns:xlink="http://www.w3.org/1999/xlink" width="400" height="400" viewBox="0, 0, 400,400"><g id="svgg"><path id="path0" d="M158.984 34.632 C 157.695 35.137,155.586 36.142,154.297 36.864 C 150.871 38.784,3.543 186.614,1.836 189.844 C -0.597 194.447,-0.228 206.385,2.488 210.938 C 5.603 216.159,152.682 362.664,156.641 364.489 C 167.146 369.331,174.687 366.804,187.628 354.106 C 199.105 342.843,201.047 339.539,201.060 331.250 C 201.076 321.632,202.152 322.925,154.078 274.805 L 110.566 231.250 246.884 231.242 L 383.203 231.235 387.109 229.383 C 397.634 224.393,399.960 218.993,399.983 199.503 C 400.003 181.897,399.020 178.759,391.758 173.239 C 385.552 168.523,392.725 168.745,246.892 168.754 L 111.361 168.762 154.391 125.592 C 202.099 77.728,201.022 79.028,201.052 69.218 C 201.078 60.431,199.306 57.352,187.628 45.902 C 175.369 33.882,168.145 31.040,158.984 34.632 " stroke="none" fill="white" fill-rule="evenodd"></path></g></svg>